# xmcd
#
# Track frame offsets:
#	150
#	18428
#	29673
#	45180
#	64758
#	102547
#	117286
#	136577
#	150449
#	172712
#	191204
#	214099
#	230681
#	245411
#
# Disc length: 3533 seconds
#
# Revision: 1
# Processed by: cddbd v1.5.2PL0 Copyright (c) Steve Scherf et al.
# Submitted via: audiograbber 1.83.01
#
DISCID=b50dcb0e
DTITLE=Master Charge - Working Stiffs
DYEAR=1999
DGENRE=Blues
TTITLE0=Free Ride
TTITLE1=Back My Money
TTITLE2=East Side Baby
TTITLE3=Reanimated Swing
TTITLE4=Ain´t Gonna Work
TTITLE5=Well I Done Got Over It
TTITLE6=Ruth Ann
TTITLE7=Tell You About It Now
TTITLE8=Lie ´Til You Die
TTITLE9=My Kind of Livin´
TTITLE10=Drivin´ Home
TTITLE11=Strange Way
TTITLE12=Red Card
TTITLE13=Long Drink Sally
EXTD=
EXTT0=
EXTT1=
EXTT2=
EXTT3=
EXTT4=
EXTT5=
EXTT6=
EXTT7=
EXTT8=
EXTT9=
EXTT10=
EXTT11=
EXTT12=
EXTT13=
PLAYORDER=
